<mxfile host="app.diagrams.net" agent="Mozilla/5.0 (Windows NT 10.0; Win64; x64) AppleWebKit/537.36 (KHTML, like Gecko) Chrome/135.0.0.0 Safari/537.36" version="26.2.2">
  <diagram name="Page-1" id="0R5RpEd75LdOgS1Jss8F">
    <mxGraphModel dx="3181" dy="1510" grid="1" gridSize="10" guides="1" tooltips="1" connect="1" arrows="1" fold="1" page="0" pageScale="1" pageWidth="850" pageHeight="1100" math="0" shadow="0">
      <root>
        <mxCell id="0" />
        <mxCell id="1" parent="0" />
        <mxCell id="Jdbz9WX4M0rKH_OECkbb-1" value="users" style="rounded=1;arcSize=10;whiteSpace=wrap;html=1;align=center;" vertex="1" parent="1">
          <mxGeometry x="90" y="40" width="100" height="40" as="geometry" />
        </mxCell>
        <mxCell id="Jdbz9WX4M0rKH_OECkbb-3" value="name" style="ellipse;whiteSpace=wrap;html=1;align=center;" vertex="1" parent="1">
          <mxGeometry x="10" y="-80" width="100" height="40" as="geometry" />
        </mxCell>
        <mxCell id="Jdbz9WX4M0rKH_OECkbb-4" value="surname" style="ellipse;whiteSpace=wrap;html=1;align=center;" vertex="1" parent="1">
          <mxGeometry x="-50" y="-30" width="100" height="40" as="geometry" />
        </mxCell>
        <mxCell id="Jdbz9WX4M0rKH_OECkbb-5" value="email" style="ellipse;whiteSpace=wrap;html=1;align=center;" vertex="1" parent="1">
          <mxGeometry x="-50" y="30" width="100" height="40" as="geometry" />
        </mxCell>
        <mxCell id="Jdbz9WX4M0rKH_OECkbb-6" value="salt" style="ellipse;whiteSpace=wrap;html=1;align=center;" vertex="1" parent="1">
          <mxGeometry x="-20" y="90" width="100" height="40" as="geometry" />
        </mxCell>
        <mxCell id="Jdbz9WX4M0rKH_OECkbb-8" value="" style="endArrow=none;html=1;rounded=0;entryX=1;entryY=1;entryDx=0;entryDy=0;exitX=0.5;exitY=0;exitDx=0;exitDy=0;" edge="1" parent="1" source="Jdbz9WX4M0rKH_OECkbb-1" target="Jdbz9WX4M0rKH_OECkbb-3">
          <mxGeometry width="50" height="50" relative="1" as="geometry">
            <mxPoint x="110" y="160" as="sourcePoint" />
            <mxPoint x="160" y="110" as="targetPoint" />
          </mxGeometry>
        </mxCell>
        <mxCell id="Jdbz9WX4M0rKH_OECkbb-9" value="" style="endArrow=none;html=1;rounded=0;entryX=0.969;entryY=0.704;entryDx=0;entryDy=0;entryPerimeter=0;exitX=0.25;exitY=0;exitDx=0;exitDy=0;" edge="1" parent="1" source="Jdbz9WX4M0rKH_OECkbb-1" target="Jdbz9WX4M0rKH_OECkbb-4">
          <mxGeometry width="50" height="50" relative="1" as="geometry">
            <mxPoint x="110" y="160" as="sourcePoint" />
            <mxPoint x="160" y="110" as="targetPoint" />
          </mxGeometry>
        </mxCell>
        <mxCell id="Jdbz9WX4M0rKH_OECkbb-10" value="" style="endArrow=none;html=1;rounded=0;exitX=1;exitY=0.5;exitDx=0;exitDy=0;entryX=0;entryY=0.25;entryDx=0;entryDy=0;" edge="1" parent="1" source="Jdbz9WX4M0rKH_OECkbb-5" target="Jdbz9WX4M0rKH_OECkbb-1">
          <mxGeometry width="50" height="50" relative="1" as="geometry">
            <mxPoint x="110" y="160" as="sourcePoint" />
            <mxPoint x="160" y="110" as="targetPoint" />
          </mxGeometry>
        </mxCell>
        <mxCell id="Jdbz9WX4M0rKH_OECkbb-11" value="" style="endArrow=none;html=1;rounded=0;entryX=0;entryY=1;entryDx=0;entryDy=0;exitX=1;exitY=0;exitDx=0;exitDy=0;" edge="1" parent="1" source="Jdbz9WX4M0rKH_OECkbb-6" target="Jdbz9WX4M0rKH_OECkbb-1">
          <mxGeometry width="50" height="50" relative="1" as="geometry">
            <mxPoint x="110" y="160" as="sourcePoint" />
            <mxPoint x="160" y="110" as="targetPoint" />
          </mxGeometry>
        </mxCell>
        <mxCell id="Jdbz9WX4M0rKH_OECkbb-12" value="user_id" style="ellipse;whiteSpace=wrap;html=1;align=center;fontStyle=4;" vertex="1" parent="1">
          <mxGeometry x="110" y="-100" width="100" height="40" as="geometry" />
        </mxCell>
        <mxCell id="Jdbz9WX4M0rKH_OECkbb-13" value="" style="endArrow=none;html=1;rounded=0;exitX=0.5;exitY=1;exitDx=0;exitDy=0;" edge="1" parent="1" source="Jdbz9WX4M0rKH_OECkbb-12" target="Jdbz9WX4M0rKH_OECkbb-1">
          <mxGeometry relative="1" as="geometry">
            <mxPoint x="50" y="110" as="sourcePoint" />
            <mxPoint x="210" y="110" as="targetPoint" />
          </mxGeometry>
        </mxCell>
        <mxCell id="Jdbz9WX4M0rKH_OECkbb-16" value="user_type" style="ellipse;whiteSpace=wrap;html=1;align=center;" vertex="1" parent="1">
          <mxGeometry x="60" y="130" width="100" height="40" as="geometry" />
        </mxCell>
        <mxCell id="Jdbz9WX4M0rKH_OECkbb-18" value="" style="endArrow=none;html=1;rounded=0;entryX=0.25;entryY=1;entryDx=0;entryDy=0;exitX=0.5;exitY=0;exitDx=0;exitDy=0;" edge="1" parent="1" source="Jdbz9WX4M0rKH_OECkbb-16" target="Jdbz9WX4M0rKH_OECkbb-1">
          <mxGeometry width="50" height="50" relative="1" as="geometry">
            <mxPoint x="110" y="130" as="sourcePoint" />
            <mxPoint x="160" y="80" as="targetPoint" />
          </mxGeometry>
        </mxCell>
        <mxCell id="Jdbz9WX4M0rKH_OECkbb-20" value="" style="shape=link;html=1;rounded=0;exitX=1;exitY=0.5;exitDx=0;exitDy=0;" edge="1" parent="1" source="Jdbz9WX4M0rKH_OECkbb-23">
          <mxGeometry relative="1" as="geometry">
            <mxPoint x="440" y="60" as="sourcePoint" />
            <mxPoint x="470" y="60" as="targetPoint" />
          </mxGeometry>
        </mxCell>
        <mxCell id="Jdbz9WX4M0rKH_OECkbb-22" value="N" style="resizable=0;html=1;whiteSpace=wrap;align=right;verticalAlign=bottom;" connectable="0" vertex="1" parent="Jdbz9WX4M0rKH_OECkbb-20">
          <mxGeometry x="1" relative="1" as="geometry">
            <mxPoint x="-20" y="-10" as="offset" />
          </mxGeometry>
        </mxCell>
        <mxCell id="Jdbz9WX4M0rKH_OECkbb-24" value="" style="shape=link;html=1;rounded=0;exitX=1;exitY=0.5;exitDx=0;exitDy=0;" edge="1" parent="1" source="Jdbz9WX4M0rKH_OECkbb-1" target="Jdbz9WX4M0rKH_OECkbb-23">
          <mxGeometry relative="1" as="geometry">
            <mxPoint x="190" y="60" as="sourcePoint" />
            <mxPoint x="380" y="60" as="targetPoint" />
          </mxGeometry>
        </mxCell>
        <mxCell id="Jdbz9WX4M0rKH_OECkbb-25" value="1" style="resizable=0;html=1;whiteSpace=wrap;align=left;verticalAlign=bottom;" connectable="0" vertex="1" parent="Jdbz9WX4M0rKH_OECkbb-24">
          <mxGeometry x="-1" relative="1" as="geometry">
            <mxPoint x="30" y="-10" as="offset" />
          </mxGeometry>
        </mxCell>
        <mxCell id="Jdbz9WX4M0rKH_OECkbb-23" value="makes" style="shape=rhombus;perimeter=rhombusPerimeter;whiteSpace=wrap;html=1;align=center;" vertex="1" parent="1">
          <mxGeometry x="280" y="30" width="120" height="60" as="geometry" />
        </mxCell>
        <mxCell id="Jdbz9WX4M0rKH_OECkbb-28" value="review" style="rounded=1;arcSize=10;whiteSpace=wrap;html=1;align=center;" vertex="1" parent="1">
          <mxGeometry x="470" y="40" width="100" height="40" as="geometry" />
        </mxCell>
        <mxCell id="Jdbz9WX4M0rKH_OECkbb-29" value="&lt;span style=&quot;border-bottom: 1px dotted&quot;&gt;user_id&lt;/span&gt;" style="ellipse;whiteSpace=wrap;html=1;align=center;" vertex="1" parent="1">
          <mxGeometry x="420" y="-80" width="100" height="40" as="geometry" />
        </mxCell>
        <mxCell id="Jdbz9WX4M0rKH_OECkbb-30" value="review_id" style="ellipse;whiteSpace=wrap;html=1;align=center;fontStyle=4;" vertex="1" parent="1">
          <mxGeometry x="540" y="-70" width="100" height="40" as="geometry" />
        </mxCell>
        <mxCell id="Jdbz9WX4M0rKH_OECkbb-31" value="rating" style="ellipse;whiteSpace=wrap;html=1;align=center;" vertex="1" parent="1">
          <mxGeometry x="600" y="-20" width="100" height="40" as="geometry" />
        </mxCell>
        <mxCell id="Jdbz9WX4M0rKH_OECkbb-32" value="&lt;span style=&quot;border-bottom: 1px dotted&quot;&gt;product_id&lt;/span&gt;" style="ellipse;whiteSpace=wrap;html=1;align=center;" vertex="1" parent="1">
          <mxGeometry x="620" y="40" width="100" height="40" as="geometry" />
        </mxCell>
        <mxCell id="Jdbz9WX4M0rKH_OECkbb-33" value="comment" style="ellipse;whiteSpace=wrap;html=1;align=center;" vertex="1" parent="1">
          <mxGeometry x="620" y="110" width="100" height="40" as="geometry" />
        </mxCell>
        <mxCell id="Jdbz9WX4M0rKH_OECkbb-34" value="timestamp" style="ellipse;whiteSpace=wrap;html=1;align=center;" vertex="1" parent="1">
          <mxGeometry x="390" y="120" width="100" height="40" as="geometry" />
        </mxCell>
        <mxCell id="Jdbz9WX4M0rKH_OECkbb-35" value="" style="endArrow=none;html=1;rounded=0;entryX=0.5;entryY=1;entryDx=0;entryDy=0;exitX=0.25;exitY=0;exitDx=0;exitDy=0;" edge="1" parent="1" source="Jdbz9WX4M0rKH_OECkbb-28" target="Jdbz9WX4M0rKH_OECkbb-29">
          <mxGeometry width="50" height="50" relative="1" as="geometry">
            <mxPoint x="470" y="100" as="sourcePoint" />
            <mxPoint x="520" y="50" as="targetPoint" />
          </mxGeometry>
        </mxCell>
        <mxCell id="Jdbz9WX4M0rKH_OECkbb-36" value="" style="endArrow=none;html=1;rounded=0;entryX=0.298;entryY=1.01;entryDx=0;entryDy=0;entryPerimeter=0;exitX=0.5;exitY=0;exitDx=0;exitDy=0;" edge="1" parent="1" source="Jdbz9WX4M0rKH_OECkbb-28" target="Jdbz9WX4M0rKH_OECkbb-30">
          <mxGeometry width="50" height="50" relative="1" as="geometry">
            <mxPoint x="470" y="100" as="sourcePoint" />
            <mxPoint x="520" y="50" as="targetPoint" />
          </mxGeometry>
        </mxCell>
        <mxCell id="Jdbz9WX4M0rKH_OECkbb-37" value="" style="endArrow=none;html=1;rounded=0;entryX=0;entryY=1;entryDx=0;entryDy=0;exitX=1;exitY=0;exitDx=0;exitDy=0;" edge="1" parent="1" source="Jdbz9WX4M0rKH_OECkbb-28" target="Jdbz9WX4M0rKH_OECkbb-31">
          <mxGeometry width="50" height="50" relative="1" as="geometry">
            <mxPoint x="470" y="100" as="sourcePoint" />
            <mxPoint x="520" y="50" as="targetPoint" />
          </mxGeometry>
        </mxCell>
        <mxCell id="Jdbz9WX4M0rKH_OECkbb-38" value="" style="endArrow=none;html=1;rounded=0;entryX=0;entryY=0.5;entryDx=0;entryDy=0;exitX=1;exitY=0.5;exitDx=0;exitDy=0;" edge="1" parent="1" source="Jdbz9WX4M0rKH_OECkbb-28" target="Jdbz9WX4M0rKH_OECkbb-32">
          <mxGeometry width="50" height="50" relative="1" as="geometry">
            <mxPoint x="470" y="100" as="sourcePoint" />
            <mxPoint x="520" y="50" as="targetPoint" />
          </mxGeometry>
        </mxCell>
        <mxCell id="Jdbz9WX4M0rKH_OECkbb-39" value="" style="endArrow=none;html=1;rounded=0;entryX=1;entryY=1;entryDx=0;entryDy=0;exitX=0.5;exitY=0;exitDx=0;exitDy=0;" edge="1" parent="1" source="Jdbz9WX4M0rKH_OECkbb-33" target="Jdbz9WX4M0rKH_OECkbb-28">
          <mxGeometry width="50" height="50" relative="1" as="geometry">
            <mxPoint x="470" y="100" as="sourcePoint" />
            <mxPoint x="520" y="50" as="targetPoint" />
          </mxGeometry>
        </mxCell>
        <mxCell id="Jdbz9WX4M0rKH_OECkbb-40" value="" style="endArrow=none;html=1;rounded=0;entryX=0;entryY=1;entryDx=0;entryDy=0;" edge="1" parent="1" source="Jdbz9WX4M0rKH_OECkbb-34" target="Jdbz9WX4M0rKH_OECkbb-28">
          <mxGeometry width="50" height="50" relative="1" as="geometry">
            <mxPoint x="470" y="100" as="sourcePoint" />
            <mxPoint x="520" y="50" as="targetPoint" />
          </mxGeometry>
        </mxCell>
        <mxCell id="Jdbz9WX4M0rKH_OECkbb-41" value="assuming a unique constraint on user_id and product_id to enforce 1 review per user per product" style="text;html=1;align=center;verticalAlign=middle;whiteSpace=wrap;rounded=0;" vertex="1" parent="1">
          <mxGeometry x="580" y="-150" width="220" height="90" as="geometry" />
        </mxCell>
        <mxCell id="Jdbz9WX4M0rKH_OECkbb-44" value="product" style="rounded=1;arcSize=10;whiteSpace=wrap;html=1;align=center;" vertex="1" parent="1">
          <mxGeometry x="590" y="390" width="100" height="40" as="geometry" />
        </mxCell>
        <mxCell id="Jdbz9WX4M0rKH_OECkbb-45" value="" style="shape=link;html=1;rounded=0;entryX=0.5;entryY=0;entryDx=0;entryDy=0;exitX=0.5;exitY=1;exitDx=0;exitDy=0;" edge="1" parent="1" source="Jdbz9WX4M0rKH_OECkbb-43" target="Jdbz9WX4M0rKH_OECkbb-44">
          <mxGeometry relative="1" as="geometry">
            <mxPoint x="440" y="320" as="sourcePoint" />
            <mxPoint x="690" y="350" as="targetPoint" />
          </mxGeometry>
        </mxCell>
        <mxCell id="Jdbz9WX4M0rKH_OECkbb-47" value="N" style="resizable=0;html=1;whiteSpace=wrap;align=right;verticalAlign=bottom;" connectable="0" vertex="1" parent="Jdbz9WX4M0rKH_OECkbb-45">
          <mxGeometry x="1" relative="1" as="geometry">
            <mxPoint x="-50" y="-100" as="offset" />
          </mxGeometry>
        </mxCell>
        <mxCell id="Jdbz9WX4M0rKH_OECkbb-48" value="" style="shape=link;html=1;rounded=0;exitX=0.5;exitY=1;exitDx=0;exitDy=0;entryX=0.5;entryY=0;entryDx=0;entryDy=0;" edge="1" parent="1" source="Jdbz9WX4M0rKH_OECkbb-28" target="Jdbz9WX4M0rKH_OECkbb-43">
          <mxGeometry relative="1" as="geometry">
            <mxPoint x="430" y="80" as="sourcePoint" />
            <mxPoint x="460" y="370" as="targetPoint" />
          </mxGeometry>
        </mxCell>
        <mxCell id="Jdbz9WX4M0rKH_OECkbb-49" value="1" style="resizable=0;html=1;whiteSpace=wrap;align=left;verticalAlign=bottom;" connectable="0" vertex="1" parent="Jdbz9WX4M0rKH_OECkbb-48">
          <mxGeometry x="-1" relative="1" as="geometry">
            <mxPoint x="20" y="140" as="offset" />
          </mxGeometry>
        </mxCell>
        <mxCell id="Jdbz9WX4M0rKH_OECkbb-43" value="has a&amp;nbsp;" style="shape=rhombus;perimeter=rhombusPerimeter;whiteSpace=wrap;html=1;align=center;" vertex="1" parent="1">
          <mxGeometry x="500" y="220" width="120" height="60" as="geometry" />
        </mxCell>
        <mxCell id="Jdbz9WX4M0rKH_OECkbb-51" value="product_id" style="ellipse;whiteSpace=wrap;html=1;align=center;fontStyle=4;" vertex="1" parent="1">
          <mxGeometry x="710" y="280" width="100" height="40" as="geometry" />
        </mxCell>
        <mxCell id="Jdbz9WX4M0rKH_OECkbb-52" value="name" style="ellipse;whiteSpace=wrap;html=1;align=center;" vertex="1" parent="1">
          <mxGeometry x="600" y="280" width="100" height="40" as="geometry" />
        </mxCell>
        <mxCell id="Jdbz9WX4M0rKH_OECkbb-53" value="description" style="ellipse;whiteSpace=wrap;html=1;align=center;" vertex="1" parent="1">
          <mxGeometry x="840" y="410" width="100" height="40" as="geometry" />
        </mxCell>
        <mxCell id="Jdbz9WX4M0rKH_OECkbb-54" value="password" style="ellipse;whiteSpace=wrap;html=1;align=center;" vertex="1" parent="1">
          <mxGeometry x="180" y="-40" width="100" height="40" as="geometry" />
        </mxCell>
        <mxCell id="Jdbz9WX4M0rKH_OECkbb-55" value="" style="endArrow=none;html=1;rounded=0;entryX=0;entryY=1;entryDx=0;entryDy=0;" edge="1" parent="1" source="Jdbz9WX4M0rKH_OECkbb-1" target="Jdbz9WX4M0rKH_OECkbb-54">
          <mxGeometry width="50" height="50" relative="1" as="geometry">
            <mxPoint x="180" y="130" as="sourcePoint" />
            <mxPoint x="200" as="targetPoint" />
          </mxGeometry>
        </mxCell>
        <mxCell id="Jdbz9WX4M0rKH_OECkbb-56" value="api_key" style="ellipse;whiteSpace=wrap;html=1;align=center;" vertex="1" parent="1">
          <mxGeometry x="160" y="100" width="100" height="40" as="geometry" />
        </mxCell>
        <mxCell id="Jdbz9WX4M0rKH_OECkbb-57" value="" style="endArrow=none;html=1;rounded=0;entryX=0.75;entryY=1;entryDx=0;entryDy=0;" edge="1" parent="1" source="Jdbz9WX4M0rKH_OECkbb-56" target="Jdbz9WX4M0rKH_OECkbb-1">
          <mxGeometry width="50" height="50" relative="1" as="geometry">
            <mxPoint x="170" y="190" as="sourcePoint" />
            <mxPoint x="220" y="140" as="targetPoint" />
          </mxGeometry>
        </mxCell>
        <mxCell id="Jdbz9WX4M0rKH_OECkbb-58" value="discount" style="ellipse;whiteSpace=wrap;html=1;align=center;" vertex="1" parent="1">
          <mxGeometry x="760" y="450" width="100" height="40" as="geometry" />
        </mxCell>
        <mxCell id="Jdbz9WX4M0rKH_OECkbb-59" value="initial_price" style="ellipse;whiteSpace=wrap;html=1;align=center;" vertex="1" parent="1">
          <mxGeometry x="730" y="515" width="100" height="40" as="geometry" />
        </mxCell>
        <mxCell id="Jdbz9WX4M0rKH_OECkbb-60" value="image_url" style="ellipse;whiteSpace=wrap;html=1;align=center;" vertex="1" parent="1">
          <mxGeometry x="460" y="330" width="100" height="40" as="geometry" />
        </mxCell>
        <mxCell id="Jdbz9WX4M0rKH_OECkbb-61" value="discount is stored as a discount percentage" style="text;html=1;align=center;verticalAlign=middle;whiteSpace=wrap;rounded=0;" vertex="1" parent="1">
          <mxGeometry x="820" y="460" width="210" height="95" as="geometry" />
        </mxCell>
        <mxCell id="Jdbz9WX4M0rKH_OECkbb-62" value="final_price" style="ellipse;whiteSpace=wrap;html=1;align=center;dashed=1;" vertex="1" parent="1">
          <mxGeometry x="670" y="570" width="100" height="40" as="geometry" />
        </mxCell>
        <mxCell id="Jdbz9WX4M0rKH_OECkbb-63" value="final_price is calculated from the initial_key - discount%" style="text;html=1;align=center;verticalAlign=middle;whiteSpace=wrap;rounded=0;" vertex="1" parent="1">
          <mxGeometry x="840" y="540" width="200" height="70" as="geometry" />
        </mxCell>
        <mxCell id="Jdbz9WX4M0rKH_OECkbb-66" value="user_type is a enum with either admin or customer" style="text;html=1;align=center;verticalAlign=middle;whiteSpace=wrap;rounded=0;" vertex="1" parent="1">
          <mxGeometry x="-20" y="-140" width="140" height="30" as="geometry" />
        </mxCell>
        <mxCell id="Jdbz9WX4M0rKH_OECkbb-67" value="currency" style="ellipse;whiteSpace=wrap;html=1;align=center;" vertex="1" parent="1">
          <mxGeometry x="460" y="515" width="100" height="40" as="geometry" />
        </mxCell>
        <mxCell id="Jdbz9WX4M0rKH_OECkbb-68" value="brand" style="ellipse;whiteSpace=wrap;html=1;align=center;" vertex="1" parent="1">
          <mxGeometry x="410" y="475" width="100" height="40" as="geometry" />
        </mxCell>
        <mxCell id="Jdbz9WX4M0rKH_OECkbb-70" value="retailer" style="rounded=1;arcSize=10;whiteSpace=wrap;html=1;align=center;" vertex="1" parent="1">
          <mxGeometry x="-300" y="205" width="100" height="40" as="geometry" />
        </mxCell>
        <mxCell id="Jdbz9WX4M0rKH_OECkbb-71" value="retailer_id" style="ellipse;whiteSpace=wrap;html=1;align=center;fontStyle=4;" vertex="1" parent="1">
          <mxGeometry x="-430" y="185" width="100" height="40" as="geometry" />
        </mxCell>
        <mxCell id="Jdbz9WX4M0rKH_OECkbb-72" value="name" style="ellipse;whiteSpace=wrap;html=1;align=center;" vertex="1" parent="1">
          <mxGeometry x="-420" y="245" width="100" height="40" as="geometry" />
        </mxCell>
        <mxCell id="Jdbz9WX4M0rKH_OECkbb-74" value="website" style="ellipse;whiteSpace=wrap;html=1;align=center;" vertex="1" parent="1">
          <mxGeometry x="-370" y="305" width="100" height="40" as="geometry" />
        </mxCell>
        <mxCell id="Jdbz9WX4M0rKH_OECkbb-75" value="location" style="ellipse;whiteSpace=wrap;html=1;align=center;" vertex="1" parent="1">
          <mxGeometry x="-280" y="345" width="100" height="40" as="geometry" />
        </mxCell>
        <mxCell id="Jdbz9WX4M0rKH_OECkbb-77" value="retailer_type" style="ellipse;whiteSpace=wrap;html=1;align=center;" vertex="1" parent="1">
          <mxGeometry x="-320" y="100" width="100" height="40" as="geometry" />
        </mxCell>
        <mxCell id="Jdbz9WX4M0rKH_OECkbb-78" value="retailer_type is a enum with online or physical" style="text;html=1;align=center;verticalAlign=middle;whiteSpace=wrap;rounded=0;" vertex="1" parent="1">
          <mxGeometry x="-410" y="10" width="140" height="70" as="geometry" />
        </mxCell>
        <mxCell id="Jdbz9WX4M0rKH_OECkbb-79" value="" style="endArrow=none;html=1;rounded=0;exitX=1;exitY=0.5;exitDx=0;exitDy=0;entryX=0;entryY=0.25;entryDx=0;entryDy=0;" edge="1" parent="1" source="Jdbz9WX4M0rKH_OECkbb-71" target="Jdbz9WX4M0rKH_OECkbb-70">
          <mxGeometry width="50" height="50" relative="1" as="geometry">
            <mxPoint x="-230" y="215" as="sourcePoint" />
            <mxPoint x="-180" y="165" as="targetPoint" />
          </mxGeometry>
        </mxCell>
        <mxCell id="Jdbz9WX4M0rKH_OECkbb-80" value="" style="endArrow=none;html=1;rounded=0;exitX=1;exitY=0;exitDx=0;exitDy=0;entryX=0;entryY=1;entryDx=0;entryDy=0;" edge="1" parent="1" source="Jdbz9WX4M0rKH_OECkbb-72" target="Jdbz9WX4M0rKH_OECkbb-70">
          <mxGeometry width="50" height="50" relative="1" as="geometry">
            <mxPoint x="-230" y="215" as="sourcePoint" />
            <mxPoint x="-180" y="165" as="targetPoint" />
          </mxGeometry>
        </mxCell>
        <mxCell id="Jdbz9WX4M0rKH_OECkbb-81" value="" style="endArrow=none;html=1;rounded=0;exitX=0.599;exitY=-0.081;exitDx=0;exitDy=0;exitPerimeter=0;entryX=0.25;entryY=1;entryDx=0;entryDy=0;" edge="1" parent="1" source="Jdbz9WX4M0rKH_OECkbb-74" target="Jdbz9WX4M0rKH_OECkbb-70">
          <mxGeometry width="50" height="50" relative="1" as="geometry">
            <mxPoint x="-230" y="215" as="sourcePoint" />
            <mxPoint x="-180" y="165" as="targetPoint" />
          </mxGeometry>
        </mxCell>
        <mxCell id="Jdbz9WX4M0rKH_OECkbb-82" value="" style="endArrow=none;html=1;rounded=0;exitX=0.5;exitY=0;exitDx=0;exitDy=0;entryX=0.5;entryY=1;entryDx=0;entryDy=0;" edge="1" parent="1" source="Jdbz9WX4M0rKH_OECkbb-75" target="Jdbz9WX4M0rKH_OECkbb-70">
          <mxGeometry width="50" height="50" relative="1" as="geometry">
            <mxPoint x="-230" y="215" as="sourcePoint" />
            <mxPoint x="-180" y="165" as="targetPoint" />
          </mxGeometry>
        </mxCell>
        <mxCell id="Jdbz9WX4M0rKH_OECkbb-84" value="" style="endArrow=none;html=1;rounded=0;entryX=0.5;entryY=1;entryDx=0;entryDy=0;" edge="1" parent="1" target="Jdbz9WX4M0rKH_OECkbb-77">
          <mxGeometry width="50" height="50" relative="1" as="geometry">
            <mxPoint x="-260" y="200" as="sourcePoint" />
            <mxPoint x="-180" y="165" as="targetPoint" />
          </mxGeometry>
        </mxCell>
        <mxCell id="Jdbz9WX4M0rKH_OECkbb-85" value="category" style="rounded=1;arcSize=10;whiteSpace=wrap;html=1;align=center;" vertex="1" parent="1">
          <mxGeometry x="1040" y="275" width="100" height="40" as="geometry" />
        </mxCell>
        <mxCell id="Jdbz9WX4M0rKH_OECkbb-86" value="" style="endArrow=none;html=1;rounded=0;exitX=0;exitY=0.5;exitDx=0;exitDy=0;" edge="1" parent="1" source="Jdbz9WX4M0rKH_OECkbb-85" target="Jdbz9WX4M0rKH_OECkbb-87">
          <mxGeometry width="50" height="50" relative="1" as="geometry">
            <mxPoint x="1190" y="335" as="sourcePoint" />
            <mxPoint x="1210" y="285" as="targetPoint" />
          </mxGeometry>
        </mxCell>
        <mxCell id="Jdbz9WX4M0rKH_OECkbb-87" value="category_name" style="ellipse;whiteSpace=wrap;html=1;align=center;" vertex="1" parent="1">
          <mxGeometry x="900.0000000000001" y="255" width="100" height="40" as="geometry" />
        </mxCell>
        <mxCell id="Jdbz9WX4M0rKH_OECkbb-89" value="category_id" style="ellipse;whiteSpace=wrap;html=1;align=center;fontStyle=4;" vertex="1" parent="1">
          <mxGeometry x="1110" y="345" width="100" height="40" as="geometry" />
        </mxCell>
        <mxCell id="Jdbz9WX4M0rKH_OECkbb-90" value="offers" style="rounded=1;arcSize=10;whiteSpace=wrap;html=1;align=center;" vertex="1" parent="1">
          <mxGeometry x="-40" y="370" width="120" height="40" as="geometry" />
        </mxCell>
        <mxCell id="Jdbz9WX4M0rKH_OECkbb-91" value="product_images" style="rounded=1;arcSize=10;whiteSpace=wrap;html=1;align=center;" vertex="1" parent="1">
          <mxGeometry x="540" y="800" width="100" height="40" as="geometry" />
        </mxCell>
        <mxCell id="Jdbz9WX4M0rKH_OECkbb-92" value="caption" style="ellipse;whiteSpace=wrap;html=1;align=center;" vertex="1" parent="1">
          <mxGeometry x="410" y="790" width="100" height="40" as="geometry" />
        </mxCell>
        <mxCell id="Jdbz9WX4M0rKH_OECkbb-94" value="&lt;span style=&quot;border-bottom: 1px dotted&quot;&gt;product_id&lt;/span&gt;" style="ellipse;whiteSpace=wrap;html=1;align=center;" vertex="1" parent="1">
          <mxGeometry x="640" y="860" width="100" height="40" as="geometry" />
        </mxCell>
        <mxCell id="Jdbz9WX4M0rKH_OECkbb-95" value="image_url" style="ellipse;whiteSpace=wrap;html=1;align=center;" vertex="1" parent="1">
          <mxGeometry x="640" y="750" width="100" height="40" as="geometry" />
        </mxCell>
        <mxCell id="Jdbz9WX4M0rKH_OECkbb-96" value="image_id" style="ellipse;whiteSpace=wrap;html=1;align=center;fontStyle=4;" vertex="1" parent="1">
          <mxGeometry x="490" y="870" width="100" height="40" as="geometry" />
        </mxCell>
        <mxCell id="Jdbz9WX4M0rKH_OECkbb-97" value="" style="endArrow=none;html=1;rounded=0;exitX=1;exitY=0.5;exitDx=0;exitDy=0;entryX=0;entryY=0.5;entryDx=0;entryDy=0;" edge="1" parent="1" source="Jdbz9WX4M0rKH_OECkbb-92" target="Jdbz9WX4M0rKH_OECkbb-91">
          <mxGeometry width="50" height="50" relative="1" as="geometry">
            <mxPoint x="530" y="760" as="sourcePoint" />
            <mxPoint x="580" y="710" as="targetPoint" />
          </mxGeometry>
        </mxCell>
        <mxCell id="Jdbz9WX4M0rKH_OECkbb-98" value="" style="endArrow=none;html=1;rounded=0;entryX=0;entryY=0.5;entryDx=0;entryDy=0;exitX=0.75;exitY=0;exitDx=0;exitDy=0;" edge="1" parent="1" source="Jdbz9WX4M0rKH_OECkbb-91" target="Jdbz9WX4M0rKH_OECkbb-95">
          <mxGeometry width="50" height="50" relative="1" as="geometry">
            <mxPoint x="530" y="760" as="sourcePoint" />
            <mxPoint x="580" y="710" as="targetPoint" />
          </mxGeometry>
        </mxCell>
        <mxCell id="Jdbz9WX4M0rKH_OECkbb-100" value="" style="endArrow=none;html=1;rounded=0;exitX=0.25;exitY=1;exitDx=0;exitDy=0;entryX=0.5;entryY=0;entryDx=0;entryDy=0;" edge="1" parent="1" source="Jdbz9WX4M0rKH_OECkbb-91" target="Jdbz9WX4M0rKH_OECkbb-96">
          <mxGeometry width="50" height="50" relative="1" as="geometry">
            <mxPoint x="530" y="760" as="sourcePoint" />
            <mxPoint x="580" y="710" as="targetPoint" />
          </mxGeometry>
        </mxCell>
        <mxCell id="Jdbz9WX4M0rKH_OECkbb-101" value="" style="endArrow=none;html=1;rounded=0;entryX=0;entryY=0;entryDx=0;entryDy=0;exitX=1;exitY=0.75;exitDx=0;exitDy=0;" edge="1" parent="1" source="Jdbz9WX4M0rKH_OECkbb-91" target="Jdbz9WX4M0rKH_OECkbb-94">
          <mxGeometry width="50" height="50" relative="1" as="geometry">
            <mxPoint x="530" y="760" as="sourcePoint" />
            <mxPoint x="580" y="710" as="targetPoint" />
          </mxGeometry>
        </mxCell>
        <mxCell id="Jdbz9WX4M0rKH_OECkbb-102" value="&lt;span style=&quot;border-bottom: 1px dotted&quot;&gt;product_id&lt;/span&gt;" style="ellipse;whiteSpace=wrap;html=1;align=center;" vertex="1" parent="1">
          <mxGeometry x="40" y="305" width="100" height="40" as="geometry" />
        </mxCell>
        <mxCell id="Jdbz9WX4M0rKH_OECkbb-104" value="&lt;span style=&quot;border-bottom: 1px dotted&quot;&gt;retailer_id&lt;/span&gt;" style="ellipse;whiteSpace=wrap;html=1;align=center;" vertex="1" parent="1">
          <mxGeometry x="50" y="460" width="100" height="40" as="geometry" />
        </mxCell>
        <mxCell id="Jdbz9WX4M0rKH_OECkbb-105" value="&lt;span style=&quot;border-bottom: 1px dotted&quot;&gt;product_id&lt;/span&gt;" style="ellipse;whiteSpace=wrap;html=1;align=center;" vertex="1" parent="1">
          <mxGeometry x="1090" y="215" width="100" height="40" as="geometry" />
        </mxCell>
        <mxCell id="Jdbz9WX4M0rKH_OECkbb-106" value="" style="endArrow=none;html=1;rounded=0;exitX=0.563;exitY=0.052;exitDx=0;exitDy=0;exitPerimeter=0;entryX=0.5;entryY=1;entryDx=0;entryDy=0;" edge="1" parent="1" source="Jdbz9WX4M0rKH_OECkbb-85" target="Jdbz9WX4M0rKH_OECkbb-105">
          <mxGeometry width="50" height="50" relative="1" as="geometry">
            <mxPoint x="1110" y="265" as="sourcePoint" />
            <mxPoint x="1130" y="245" as="targetPoint" />
          </mxGeometry>
        </mxCell>
        <mxCell id="Jdbz9WX4M0rKH_OECkbb-107" value="" style="endArrow=none;html=1;rounded=0;exitX=0.5;exitY=1;exitDx=0;exitDy=0;entryX=0.3;entryY=0;entryDx=0;entryDy=0;entryPerimeter=0;" edge="1" parent="1" source="Jdbz9WX4M0rKH_OECkbb-85" target="Jdbz9WX4M0rKH_OECkbb-89">
          <mxGeometry width="50" height="50" relative="1" as="geometry">
            <mxPoint x="1110" y="265" as="sourcePoint" />
            <mxPoint x="1160" y="215" as="targetPoint" />
          </mxGeometry>
        </mxCell>
        <mxCell id="Jdbz9WX4M0rKH_OECkbb-108" value="stock" style="ellipse;whiteSpace=wrap;html=1;align=center;" vertex="1" parent="1">
          <mxGeometry x="-100" y="480" width="100" height="40" as="geometry" />
        </mxCell>
        <mxCell id="Jdbz9WX4M0rKH_OECkbb-109" value="" style="endArrow=none;html=1;rounded=0;exitX=0.5;exitY=0;exitDx=0;exitDy=0;entryX=0.5;entryY=1;entryDx=0;entryDy=0;" edge="1" parent="1" source="Jdbz9WX4M0rKH_OECkbb-108" target="Jdbz9WX4M0rKH_OECkbb-90">
          <mxGeometry width="50" height="50" relative="1" as="geometry">
            <mxPoint x="-70" y="240" as="sourcePoint" />
            <mxPoint x="-20" y="190" as="targetPoint" />
          </mxGeometry>
        </mxCell>
        <mxCell id="Jdbz9WX4M0rKH_OECkbb-110" value="" style="endArrow=none;html=1;rounded=0;exitX=0.75;exitY=1;exitDx=0;exitDy=0;entryX=0.25;entryY=-0.014;entryDx=0;entryDy=0;entryPerimeter=0;" edge="1" parent="1" source="Jdbz9WX4M0rKH_OECkbb-90" target="Jdbz9WX4M0rKH_OECkbb-104">
          <mxGeometry width="50" height="50" relative="1" as="geometry">
            <mxPoint x="-70" y="240" as="sourcePoint" />
            <mxPoint x="-20" y="190" as="targetPoint" />
          </mxGeometry>
        </mxCell>
        <mxCell id="Jdbz9WX4M0rKH_OECkbb-111" value="" style="endArrow=none;html=1;rounded=0;exitX=0.648;exitY=-0.014;exitDx=0;exitDy=0;exitPerimeter=0;entryX=0.5;entryY=1;entryDx=0;entryDy=0;" edge="1" parent="1" source="Jdbz9WX4M0rKH_OECkbb-90" target="Jdbz9WX4M0rKH_OECkbb-102">
          <mxGeometry width="50" height="50" relative="1" as="geometry">
            <mxPoint x="-70" y="240" as="sourcePoint" />
            <mxPoint x="-20" y="190" as="targetPoint" />
          </mxGeometry>
        </mxCell>
        <mxCell id="Jdbz9WX4M0rKH_OECkbb-112" value="" style="endArrow=none;html=1;rounded=0;exitX=0.5;exitY=0;exitDx=0;exitDy=0;entryX=0;entryY=0.5;entryDx=0;entryDy=0;" edge="1" parent="1" source="Jdbz9WX4M0rKH_OECkbb-68" target="Jdbz9WX4M0rKH_OECkbb-44">
          <mxGeometry width="50" height="50" relative="1" as="geometry">
            <mxPoint x="560" y="340" as="sourcePoint" />
            <mxPoint x="610" y="290" as="targetPoint" />
          </mxGeometry>
        </mxCell>
        <mxCell id="Jdbz9WX4M0rKH_OECkbb-113" value="" style="endArrow=none;html=1;rounded=0;exitX=0.5;exitY=0;exitDx=0;exitDy=0;entryX=0.25;entryY=1;entryDx=0;entryDy=0;" edge="1" parent="1" source="Jdbz9WX4M0rKH_OECkbb-67" target="Jdbz9WX4M0rKH_OECkbb-44">
          <mxGeometry width="50" height="50" relative="1" as="geometry">
            <mxPoint x="560" y="340" as="sourcePoint" />
            <mxPoint x="610" y="290" as="targetPoint" />
          </mxGeometry>
        </mxCell>
        <mxCell id="Jdbz9WX4M0rKH_OECkbb-114" value="" style="endArrow=none;html=1;rounded=0;" edge="1" parent="1" source="Jdbz9WX4M0rKH_OECkbb-60">
          <mxGeometry width="50" height="50" relative="1" as="geometry">
            <mxPoint x="560" y="340" as="sourcePoint" />
            <mxPoint x="590" y="390" as="targetPoint" />
          </mxGeometry>
        </mxCell>
        <mxCell id="Jdbz9WX4M0rKH_OECkbb-115" value="" style="endArrow=none;html=1;rounded=0;exitX=0.305;exitY=0.066;exitDx=0;exitDy=0;exitPerimeter=0;entryX=0.75;entryY=1;entryDx=0;entryDy=0;" edge="1" parent="1" source="Jdbz9WX4M0rKH_OECkbb-62" target="Jdbz9WX4M0rKH_OECkbb-44">
          <mxGeometry width="50" height="50" relative="1" as="geometry">
            <mxPoint x="560" y="340" as="sourcePoint" />
            <mxPoint x="610" y="290" as="targetPoint" />
          </mxGeometry>
        </mxCell>
        <mxCell id="Jdbz9WX4M0rKH_OECkbb-116" value="" style="endArrow=none;html=1;rounded=0;exitX=1;exitY=0.5;exitDx=0;exitDy=0;entryX=0;entryY=0.5;entryDx=0;entryDy=0;" edge="1" parent="1" source="Jdbz9WX4M0rKH_OECkbb-44" target="Jdbz9WX4M0rKH_OECkbb-58">
          <mxGeometry width="50" height="50" relative="1" as="geometry">
            <mxPoint x="560" y="340" as="sourcePoint" />
            <mxPoint x="610" y="290" as="targetPoint" />
          </mxGeometry>
        </mxCell>
        <mxCell id="Jdbz9WX4M0rKH_OECkbb-117" value="" style="endArrow=none;html=1;rounded=0;exitX=1;exitY=1;exitDx=0;exitDy=0;entryX=0;entryY=0;entryDx=0;entryDy=0;" edge="1" parent="1" source="Jdbz9WX4M0rKH_OECkbb-44" target="Jdbz9WX4M0rKH_OECkbb-59">
          <mxGeometry width="50" height="50" relative="1" as="geometry">
            <mxPoint x="560" y="340" as="sourcePoint" />
            <mxPoint x="610" y="290" as="targetPoint" />
          </mxGeometry>
        </mxCell>
        <mxCell id="Jdbz9WX4M0rKH_OECkbb-118" value="" style="endArrow=none;html=1;rounded=0;entryX=0.023;entryY=0.736;entryDx=0;entryDy=0;entryPerimeter=0;exitX=0.9;exitY=0;exitDx=0;exitDy=0;exitPerimeter=0;" edge="1" parent="1" source="Jdbz9WX4M0rKH_OECkbb-44" target="Jdbz9WX4M0rKH_OECkbb-51">
          <mxGeometry width="50" height="50" relative="1" as="geometry">
            <mxPoint x="560" y="340" as="sourcePoint" />
            <mxPoint x="610" y="290" as="targetPoint" />
          </mxGeometry>
        </mxCell>
        <mxCell id="Jdbz9WX4M0rKH_OECkbb-119" value="" style="endArrow=none;html=1;rounded=0;entryX=0.5;entryY=1;entryDx=0;entryDy=0;exitX=0.75;exitY=0;exitDx=0;exitDy=0;" edge="1" parent="1" source="Jdbz9WX4M0rKH_OECkbb-44" target="Jdbz9WX4M0rKH_OECkbb-52">
          <mxGeometry width="50" height="50" relative="1" as="geometry">
            <mxPoint x="560" y="340" as="sourcePoint" />
            <mxPoint x="610" y="290" as="targetPoint" />
          </mxGeometry>
        </mxCell>
        <mxCell id="Jdbz9WX4M0rKH_OECkbb-120" value="" style="endArrow=none;html=1;rounded=0;exitX=1;exitY=0.25;exitDx=0;exitDy=0;entryX=0;entryY=0.5;entryDx=0;entryDy=0;" edge="1" parent="1" source="Jdbz9WX4M0rKH_OECkbb-44" target="Jdbz9WX4M0rKH_OECkbb-53">
          <mxGeometry width="50" height="50" relative="1" as="geometry">
            <mxPoint x="560" y="340" as="sourcePoint" />
            <mxPoint x="610" y="290" as="targetPoint" />
          </mxGeometry>
        </mxCell>
        <mxCell id="Jdbz9WX4M0rKH_OECkbb-122" value="" style="shape=link;html=1;rounded=0;exitX=1;exitY=0.5;exitDx=0;exitDy=0;" edge="1" parent="1" source="Jdbz9WX4M0rKH_OECkbb-125">
          <mxGeometry relative="1" as="geometry">
            <mxPoint x="200" y="420" as="sourcePoint" />
            <mxPoint x="590" y="410" as="targetPoint" />
          </mxGeometry>
        </mxCell>
        <mxCell id="Jdbz9WX4M0rKH_OECkbb-124" value="N" style="resizable=0;html=1;whiteSpace=wrap;align=right;verticalAlign=bottom;" connectable="0" vertex="1" parent="Jdbz9WX4M0rKH_OECkbb-122">
          <mxGeometry x="1" relative="1" as="geometry">
            <mxPoint x="-150" y="-5" as="offset" />
          </mxGeometry>
        </mxCell>
        <mxCell id="Jdbz9WX4M0rKH_OECkbb-126" value="" style="shape=link;html=1;rounded=0;exitX=1;exitY=0.5;exitDx=0;exitDy=0;entryX=1;entryY=0.5;entryDx=0;entryDy=0;" edge="1" parent="1" target="Jdbz9WX4M0rKH_OECkbb-90">
          <mxGeometry relative="1" as="geometry">
            <mxPoint x="323.79999999999995" y="410" as="sourcePoint" />
            <mxPoint x="40" y="430" as="targetPoint" />
          </mxGeometry>
        </mxCell>
        <mxCell id="Jdbz9WX4M0rKH_OECkbb-127" value="M" style="resizable=0;html=1;whiteSpace=wrap;align=left;verticalAlign=bottom;" connectable="0" vertex="1" parent="Jdbz9WX4M0rKH_OECkbb-126">
          <mxGeometry x="-1" relative="1" as="geometry">
            <mxPoint x="-14" y="-10" as="offset" />
          </mxGeometry>
        </mxCell>
        <mxCell id="Jdbz9WX4M0rKH_OECkbb-125" value="has&amp;nbsp;" style="shape=rhombus;perimeter=rhombusPerimeter;whiteSpace=wrap;html=1;align=center;" vertex="1" parent="1">
          <mxGeometry x="310" y="380" width="120" height="60" as="geometry" />
        </mxCell>
        <mxCell id="Jdbz9WX4M0rKH_OECkbb-130" value="" style="shape=link;html=1;rounded=0;entryX=0;entryY=1;entryDx=0;entryDy=0;exitX=1;exitY=0.5;exitDx=0;exitDy=0;" edge="1" parent="1" source="Jdbz9WX4M0rKH_OECkbb-129" target="Jdbz9WX4M0rKH_OECkbb-85">
          <mxGeometry relative="1" as="geometry">
            <mxPoint x="360" y="430" as="sourcePoint" />
            <mxPoint x="520" y="430" as="targetPoint" />
          </mxGeometry>
        </mxCell>
        <mxCell id="Jdbz9WX4M0rKH_OECkbb-132" value="N" style="resizable=0;html=1;whiteSpace=wrap;align=right;verticalAlign=bottom;" connectable="0" vertex="1" parent="Jdbz9WX4M0rKH_OECkbb-130">
          <mxGeometry x="1" relative="1" as="geometry">
            <mxPoint x="-70" y="50" as="offset" />
          </mxGeometry>
        </mxCell>
        <mxCell id="Jdbz9WX4M0rKH_OECkbb-133" value="" style="shape=link;html=1;rounded=0;entryX=0;entryY=1;entryDx=0;entryDy=0;exitX=1;exitY=0;exitDx=0;exitDy=0;" edge="1" parent="1" source="Jdbz9WX4M0rKH_OECkbb-44" target="Jdbz9WX4M0rKH_OECkbb-129">
          <mxGeometry relative="1" as="geometry">
            <mxPoint x="690" y="390" as="sourcePoint" />
            <mxPoint x="1040" y="315" as="targetPoint" />
          </mxGeometry>
        </mxCell>
        <mxCell id="Jdbz9WX4M0rKH_OECkbb-134" value="M" style="resizable=0;html=1;whiteSpace=wrap;align=left;verticalAlign=bottom;" connectable="0" vertex="1" parent="Jdbz9WX4M0rKH_OECkbb-133">
          <mxGeometry x="-1" relative="1" as="geometry">
            <mxPoint x="150" y="-10" as="offset" />
          </mxGeometry>
        </mxCell>
        <mxCell id="Jdbz9WX4M0rKH_OECkbb-129" value="belongs to&amp;nbsp;" style="shape=rhombus;perimeter=rhombusPerimeter;whiteSpace=wrap;html=1;align=center;" vertex="1" parent="1">
          <mxGeometry x="830" y="310" width="120" height="60" as="geometry" />
        </mxCell>
        <mxCell id="Jdbz9WX4M0rKH_OECkbb-137" value="" style="shape=link;html=1;rounded=0;exitX=1;exitY=1;exitDx=0;exitDy=0;entryX=0.25;entryY=0;entryDx=0;entryDy=0;" edge="1" parent="1" source="Jdbz9WX4M0rKH_OECkbb-136" target="Jdbz9WX4M0rKH_OECkbb-90">
          <mxGeometry relative="1" as="geometry">
            <mxPoint x="350" y="230" as="sourcePoint" />
            <mxPoint x="520" y="220" as="targetPoint" />
          </mxGeometry>
        </mxCell>
        <mxCell id="Jdbz9WX4M0rKH_OECkbb-139" value="N" style="resizable=0;html=1;whiteSpace=wrap;align=right;verticalAlign=bottom;" connectable="0" vertex="1" parent="Jdbz9WX4M0rKH_OECkbb-137">
          <mxGeometry x="1" relative="1" as="geometry">
            <mxPoint x="-30" y="-50" as="offset" />
          </mxGeometry>
        </mxCell>
        <mxCell id="Jdbz9WX4M0rKH_OECkbb-140" value="" style="shape=link;html=1;rounded=0;entryX=0.25;entryY=0;entryDx=0;entryDy=0;" edge="1" parent="1" target="Jdbz9WX4M0rKH_OECkbb-136">
          <mxGeometry relative="1" as="geometry">
            <mxPoint x="-200" y="241" as="sourcePoint" />
            <mxPoint x="-10" y="370" as="targetPoint" />
          </mxGeometry>
        </mxCell>
        <mxCell id="Jdbz9WX4M0rKH_OECkbb-141" value="M" style="resizable=0;html=1;whiteSpace=wrap;align=left;verticalAlign=bottom;" connectable="0" vertex="1" parent="Jdbz9WX4M0rKH_OECkbb-140">
          <mxGeometry x="-1" relative="1" as="geometry">
            <mxPoint x="50" y="24" as="offset" />
          </mxGeometry>
        </mxCell>
        <mxCell id="Jdbz9WX4M0rKH_OECkbb-136" value="offered by" style="shape=rhombus;perimeter=rhombusPerimeter;whiteSpace=wrap;html=1;align=center;" vertex="1" parent="1">
          <mxGeometry x="-180" y="270" width="120" height="60" as="geometry" />
        </mxCell>
        <mxCell id="Jdbz9WX4M0rKH_OECkbb-147" value="" style="shape=link;html=1;rounded=0;exitX=0.5;exitY=0;exitDx=0;exitDy=0;entryX=0.5;entryY=1;entryDx=0;entryDy=0;" edge="1" parent="1" source="Jdbz9WX4M0rKH_OECkbb-144" target="Jdbz9WX4M0rKH_OECkbb-44">
          <mxGeometry relative="1" as="geometry">
            <mxPoint x="360" y="550" as="sourcePoint" />
            <mxPoint x="520" y="550" as="targetPoint" />
          </mxGeometry>
        </mxCell>
        <mxCell id="Jdbz9WX4M0rKH_OECkbb-144" value="has" style="shape=rhombus;perimeter=rhombusPerimeter;whiteSpace=wrap;html=1;align=center;" vertex="1" parent="1">
          <mxGeometry x="550" y="600" width="120" height="60" as="geometry" />
        </mxCell>
        <mxCell id="Jdbz9WX4M0rKH_OECkbb-153" value="1" style="resizable=0;html=1;whiteSpace=wrap;align=left;verticalAlign=bottom;" connectable="0" vertex="1" parent="1">
          <mxGeometry x="610" y="740" as="geometry">
            <mxPoint x="-18" y="-147" as="offset" />
          </mxGeometry>
        </mxCell>
        <mxCell id="Jdbz9WX4M0rKH_OECkbb-154" value="" style="shape=link;html=1;rounded=0;entryX=0.402;entryY=-0.103;entryDx=0;entryDy=0;entryPerimeter=0;exitX=0.5;exitY=1;exitDx=0;exitDy=0;" edge="1" parent="1" source="Jdbz9WX4M0rKH_OECkbb-144" target="Jdbz9WX4M0rKH_OECkbb-91">
          <mxGeometry relative="1" as="geometry">
            <mxPoint x="360" y="550" as="sourcePoint" />
            <mxPoint x="520" y="550" as="targetPoint" />
          </mxGeometry>
        </mxCell>
        <mxCell id="Jdbz9WX4M0rKH_OECkbb-155" value="N" style="resizable=0;html=1;whiteSpace=wrap;align=right;verticalAlign=bottom;" connectable="0" vertex="1" parent="Jdbz9WX4M0rKH_OECkbb-154">
          <mxGeometry x="1" relative="1" as="geometry">
            <mxPoint x="10" y="-116" as="offset" />
          </mxGeometry>
        </mxCell>
        <mxCell id="Jdbz9WX4M0rKH_OECkbb-156" value="address" style="ellipse;whiteSpace=wrap;html=1;align=center;" vertex="1" parent="1">
          <mxGeometry x="-440" y="420" width="100" height="40" as="geometry" />
        </mxCell>
        <mxCell id="Jdbz9WX4M0rKH_OECkbb-157" value="postal_code" style="ellipse;whiteSpace=wrap;html=1;align=center;" vertex="1" parent="1">
          <mxGeometry x="-330" y="440" width="100" height="40" as="geometry" />
        </mxCell>
        <mxCell id="Jdbz9WX4M0rKH_OECkbb-158" value="country" style="ellipse;whiteSpace=wrap;html=1;align=center;" vertex="1" parent="1">
          <mxGeometry x="-200" y="420" width="100" height="40" as="geometry" />
        </mxCell>
        <mxCell id="Jdbz9WX4M0rKH_OECkbb-159" value="" style="endArrow=none;html=1;rounded=0;exitX=1;exitY=1;exitDx=0;exitDy=0;" edge="1" parent="1" source="Jdbz9WX4M0rKH_OECkbb-75" target="Jdbz9WX4M0rKH_OECkbb-158">
          <mxGeometry width="50" height="50" relative="1" as="geometry">
            <mxPoint x="420" y="250" as="sourcePoint" />
            <mxPoint x="470" y="200" as="targetPoint" />
          </mxGeometry>
        </mxCell>
        <mxCell id="Jdbz9WX4M0rKH_OECkbb-160" value="" style="endArrow=none;html=1;rounded=0;exitX=0.5;exitY=1;exitDx=0;exitDy=0;entryX=0.624;entryY=-0.019;entryDx=0;entryDy=0;entryPerimeter=0;" edge="1" parent="1" source="Jdbz9WX4M0rKH_OECkbb-75" target="Jdbz9WX4M0rKH_OECkbb-157">
          <mxGeometry width="50" height="50" relative="1" as="geometry">
            <mxPoint x="420" y="250" as="sourcePoint" />
            <mxPoint x="470" y="200" as="targetPoint" />
          </mxGeometry>
        </mxCell>
        <mxCell id="Jdbz9WX4M0rKH_OECkbb-161" value="" style="endArrow=none;html=1;rounded=0;entryX=0.969;entryY=0.231;entryDx=0;entryDy=0;entryPerimeter=0;" edge="1" parent="1" source="Jdbz9WX4M0rKH_OECkbb-75" target="Jdbz9WX4M0rKH_OECkbb-156">
          <mxGeometry width="50" height="50" relative="1" as="geometry">
            <mxPoint x="420" y="250" as="sourcePoint" />
            <mxPoint x="470" y="200" as="targetPoint" />
          </mxGeometry>
        </mxCell>
        <mxCell id="Jdbz9WX4M0rKH_OECkbb-162" value="operating_hours" style="ellipse;whiteSpace=wrap;html=1;align=center;" vertex="1" parent="1">
          <mxGeometry x="-210" y="130" width="100" height="40" as="geometry" />
        </mxCell>
        <mxCell id="Jdbz9WX4M0rKH_OECkbb-163" value="" style="endArrow=none;html=1;rounded=0;exitX=1;exitY=0;exitDx=0;exitDy=0;entryX=0.5;entryY=1;entryDx=0;entryDy=0;" edge="1" parent="1" source="Jdbz9WX4M0rKH_OECkbb-70" target="Jdbz9WX4M0rKH_OECkbb-162">
          <mxGeometry width="50" height="50" relative="1" as="geometry">
            <mxPoint x="420" y="250" as="sourcePoint" />
            <mxPoint x="470" y="200" as="targetPoint" />
          </mxGeometry>
        </mxCell>
        <mxCell id="Jdbz9WX4M0rKH_OECkbb-164" value="&lt;div&gt;User —(1:N)→ Review ←(1:N)— Product&lt;/div&gt;&lt;div&gt;&lt;br&gt;&lt;/div&gt;&lt;div&gt;Product —(1:N)→ ProductImage&lt;/div&gt;&lt;div&gt;&lt;br&gt;&lt;/div&gt;&lt;div&gt;Product —(M:N)→ Category&lt;/div&gt;&lt;div&gt;&lt;br&gt;&lt;/div&gt;&lt;div&gt;Retailer —(M:N)→ Product via Offers&lt;/div&gt;" style="text;html=1;align=center;verticalAlign=middle;whiteSpace=wrap;rounded=0;" vertex="1" parent="1">
          <mxGeometry x="-360" y="600" width="370" height="220" as="geometry" />
        </mxCell>
      </root>
    </mxGraphModel>
  </diagram>
</mxfile>
